<svg xmlns="http://www.w3.org/2000/svg" viewBox="0 0 72 48">
  <path fill="#c8102e" d="M54.01 32H48l24 16v-4.01L54.02 32h-.01z"/>
  <path fill="#c8102e" d="M41 19V0H31v19H0v10h31v19h10V29h31V19H41z"/>
  <path fill="#c8102e" d="M48.02 16L71.99.01 66 0 44 14.67V16h4.02zM.01 48H6l22-14.67V32h-3.99l-24 16zM23.99 16L0 0v4.01L17.99 16h6z"/>
  <path fill="#fff" d="M71.99.01L48.02 16H44v-1.33L66 0h-3.01L44 12.66V0h-3v19h31v-3H57.01L72 6.01V0l-.01.01zM41 29v19h3V35.34L62.99 48H72L48 32h6.02L72 43.99v-2L57.01 32H72v-3H41zM28 12.66L9.01 0H0l23.99 16h-6L0 4.01v2L14.99 16H0v3h31V0h-3v12.66zM0 29v3h14.99L0 42l.01 5.99V48l24-16H28v1.33L6 48h3.01L28 35.34V48h3V29H0z"/>
  <path fill="#012169" d="M72 41.99V32H57.01L72 41.99zM72 16V6.01L57.01 16H72zM72 0h-6l5.99.01L72 0zM44 0v12.66L62.99 0H44zM44 48h18.99L44 35.34V48zM28 48V35.34L9.01 48H28zM28 12.66V0H9.01L28 12.66zM0 32v10l14.99-10H0zM0 6.01V16h14.99L0 6.01zM0 48h.01v-.01L0 42v6z"/>
</svg>
